<svg xmlns="http://www.w3.org/2000/svg" width="1600" height="420" viewBox="0 0 1600 420" role="img" aria-labelledby="title desc">
  <title id="title">BetterSeed</title>
  <desc id="desc">A clean banner with a seed mark and BetterSeed wordmark.</desc>
  <defs>
    <linearGradient id="bg" x1="0" y1="0" x2="1" y2="1">
      <stop offset="0%" stop-color="#0f172a"/>
      <stop offset="55%" stop-color="#111827"/>
      <stop offset="100%" stop-color="#1f2937"/>
    </linearGradient>
    <linearGradient id="seed" x1="0" y1="0" x2="0" y2="1">
      <stop offset="0%" stop-color="#facc15"/>
      <stop offset="100%" stop-color="#f97316"/>
    </linearGradient>
    <filter id="shadow" x="-20%" y="-20%" width="140%" height="140%">
      <feDropShadow dx="0" dy="14" stdDeviation="18" flood-color="#000000" flood-opacity="0.35"/>
    </filter>
  </defs>
  <rect width="1600" height="420" fill="url(#bg)"/>
  <circle cx="1280" cy="90" r="170" fill="#22c55e" opacity="0.08"/>
  <circle cx="1400" cy="300" r="240" fill="#f59e0b" opacity="0.06"/>
  <g filter="url(#shadow)">
    <rect x="134" y="90" rx="36" ry="36" width="240" height="240" fill="#0b1220" stroke="#334155" stroke-width="2"/>
    <path d="M254 145c-44 18-76 58-76 102 0 43 29 78 69 93 39-15 68-50 68-93 0-44-32-84-76-102z" fill="url(#seed)"/>
    <path d="M248 169c-7 33-4 74 24 116" fill="none" stroke="#fff7ed" stroke-width="10" stroke-linecap="round"/>
    <circle cx="215" cy="206" r="10" fill="#fff7ed" opacity="0.9"/>
    <circle cx="282" cy="244" r="8" fill="#fff7ed" opacity="0.75"/>
  </g>
  <text x="430" y="198" fill="#f8fafc" font-family="Inter, ui-sans-serif, system-ui, -apple-system, BlinkMacSystemFont, sans-serif" font-size="88" font-weight="700" letter-spacing="1.2">BetterSeed</text>
  <text x="430" y="254" fill="#cbd5e1" font-family="Inter, ui-sans-serif, system-ui, -apple-system, BlinkMacSystemFont, sans-serif" font-size="30" font-weight="500" letter-spacing="0.3">A curated public release line for the Snapseed mod</text>
  <text x="430" y="300" fill="#94a3b8" font-family="Inter, ui-sans-serif, system-ui, -apple-system, BlinkMacSystemFont, sans-serif" font-size="22" font-weight="400">Release-oriented. Verified. Lightweight.</text>
</svg>

